<?xml version="1.0" standalone="no"?>
<!DOCTYPE svg PUBLIC "-//W3C//DTD SVG 20010904//EN"
 "http://www.w3.org/TR/2001/REC-SVG-20010904/DTD/svg10.dtd">
<svg version="1.0" xmlns="http://www.w3.org/2000/svg"
 width="133.000000pt" height="50.000000pt" viewBox="0 0 133.000000 50.000000"
 preserveAspectRatio="xMidYMid meet">

<g transform="translate(0.000000,50.000000) scale(0.100000,-0.100000)"
fill="#000000" stroke="none">
<path d="M140 353 c-40 -27 -49 -45 -50 -91 0 -62 40 -102 103 -102 56 0 77
22 77 78 l0 42 -45 0 c-38 0 -45 -3 -45 -20 0 -13 7 -20 20 -20 11 0 20 -7 20
-15 0 -18 -50 -21 -68 -3 -7 7 -12 27 -12 45 0 41 35 63 74 45 17 -7 27 -7 35
1 18 18 13 33 -14 45 -36 17 -66 15 -95 -5z"/>
<path d="M354 360 c-36 -14 -64 -59 -64 -102 0 -54 45 -98 99 -98 45 0 77 20
68 44 -5 13 -15 15 -47 10 -48 -8 -70 7 -70 47 0 40 40 67 76 50 30 -13 44 -7
44 19 0 11 -12 22 -31 29 -37 13 -46 13 -75 1z"/>
<path d="M491 361 c-8 -5 -11 -37 -9 -102 3 -89 4 -94 26 -97 20 -3 22 1 22
37 0 40 1 41 34 41 31 0 34 -3 40 -40 5 -31 11 -40 26 -40 19 0 20 7 20 99 0
103 -11 131 -37 96 -7 -11 -13 -31 -13 -47 0 -25 -3 -28 -35 -28 -34 0 -35 1
-35 39 0 39 -16 56 -39 42z"/>
<path d="M718 353 c-84 -54 -51 -193 47 -193 47 0 71 13 90 50 23 45 19 85
-12 120 -35 38 -86 48 -125 23z m84 -50 c35 -32 15 -93 -30 -93 -35 0 -52 16
-52 49 0 28 26 61 48 61 9 0 24 -7 34 -17z"/>
<path d="M900 350 c-39 -39 -18 -90 43 -105 34 -9 41 -19 22 -35 -13 -10 -19
-9 -35 5 -21 19 -50 14 -50 -8 0 -27 36 -48 76 -45 27 2 43 11 58 31 19 26 19
30 6 54 -8 15 -30 31 -49 38 -50 16 -55 40 -7 31 29 -6 38 -4 43 10 15 40 -71
60 -107 24z"/>
<path d="M1032 358 c-17 -17 4 -38 39 -38 l29 0 0 -81 c0 -78 1 -80 23 -77 20
3 22 9 25 81 3 72 4 77 25 77 31 0 51 15 44 34 -5 13 -23 16 -90 16 -50 0 -88
-5 -95 -12z"/>
</g>
</svg>
